<svg width="109" height="98" viewBox="0 0 109 98" fill="none" xmlns="http://www.w3.org/2000/svg">
<g clip-path="url(#clip0_905_1617)">
<path d="M66.5013 75.5861L75.1998 67.4416C79.0849 63.7392 85.2675 63.8472 89.0098 67.6909C90.1565 68.8669 90.1229 70.7409 88.9342 71.8712L71.4155 88.3597C66.9213 92.5441 59.8861 94.8296 53.7203 95.0789C47.5503 95.3282 41.4098 94.3351 35.244 93.9902C25.9155 93.4625 10.8034 94.468 1.77734 96.8574" stroke="#344154" stroke-width="2.99548" stroke-linecap="round" stroke-linejoin="round"/>
<path d="M28.6619 78.4078L39.7881 80.7638C43.2952 81.5077 46.8695 81.8816 50.4522 81.8816H56.471C59.5497 81.8816 62.0487 79.4092 62.0487 76.3633C62.0487 73.3174 59.5497 70.845 56.471 70.845H51.1788C46.2983 70.845 41.4723 69.8602 36.9908 67.9487C33.8449 66.6107 30.7242 65.2186 27.3641 64.3876C18.1826 62.1146 7.88808 64.9028 1.15527 71.4808" stroke="#344154" stroke-width="2.99548" stroke-linecap="round" stroke-linejoin="round"/>
<path d="M57.9531 30.9863C57.9531 30.9863 68.0838 36.4215 72.0236 39.5505C72.9602 40.2943 73.7498 41.2002 74.3924 42.21C75.5811 44.084 76.1313 46.2864 76.1313 48.497V58.1665" stroke="#344154" stroke-width="2.99548" stroke-miterlimit="10" stroke-linecap="round"/>
<path d="M37.5278 30.9863C37.5278 30.9863 27.3971 36.4215 23.4573 39.5505C22.5207 40.2943 21.7311 41.2002 21.0885 42.21C19.8998 44.084 19.3496 46.2864 19.3496 48.497V58.1665" stroke="#344154" stroke-width="2.99548" stroke-miterlimit="10" stroke-linecap="round"/>
<path d="M47.7384 36.2637C55.6322 36.2637 62.0314 28.4016 62.0314 18.7031C62.0314 9.0047 55.6322 1.14258 47.7384 1.14258C39.8445 1.14258 33.4453 9.0047 33.4453 18.7031C33.4453 28.4016 39.8445 36.2637 47.7384 36.2637Z" stroke="#344154" stroke-width="2.99548" stroke-miterlimit="10" stroke-linecap="round"/>
<path d="M47.738 5.71338C46.6082 5.71338 45.5245 6.00425 44.5039 6.50705C48.2126 8.33957 50.9427 13.1806 50.9427 18.703C50.9427 24.2255 48.2126 29.0665 44.5039 30.899C45.5203 31.4018 46.6082 31.6927 47.738 31.6927C52.9798 31.6927 57.4109 25.7422 57.4109 18.703C57.4109 11.6639 52.9798 5.71338 47.738 5.71338Z" fill="#35B4CF"/>
</g>
<path d="M86.499 15.999C86.3664 15.999 86.2392 16.0517 86.1455 16.1455C86.0517 16.2393 85.999 16.3664 85.999 16.499V25.499C85.999 25.6316 86.0517 25.7589 86.1455 25.8527C86.2392 25.9464 86.3664 25.999 86.499 25.999H99.499C99.6316 25.999 99.7588 25.9464 99.8526 25.8527C99.9463 25.7589 99.999 25.6316 99.999 25.499V16.499C99.999 16.3664 99.9463 16.2393 99.8526 16.1455C99.7588 16.0517 99.6316 15.999 99.499 15.999H86.499ZM86.999 16.999H98.999V24.999H86.999V16.999Z" fill="#2B4255"/>
<path fill-rule="evenodd" clip-rule="evenodd" d="M90.999 25.8999V28.1H91.999V25.8999H90.999ZM93.999 25.8999V28.1H94.999V25.8999H93.999Z" fill="#2B4255"/>
<path fill-rule="evenodd" clip-rule="evenodd" d="M90.0498 27.999V28.999H96.0498V27.999H90.0498Z" fill="#2B4255"/>
<path d="M88 18H98V24H88V18Z" fill="#F8B84E"/>
<path d="M77.499 35.999V42.999H86.499V35.999H77.499ZM78.499 36.999H85.499V41.999H78.499V36.999Z" fill="#2B4255"/>
<path fill-rule="evenodd" clip-rule="evenodd" d="M79.999 42.8999V45.1H80.999V42.8999H79.999ZM82.999 42.8999V45.1H83.999V42.8999H82.999Z" fill="#2B4255"/>
<path fill-rule="evenodd" clip-rule="evenodd" d="M78.999 44.999V45.999H84.999V44.999H78.999Z" fill="#2B4255"/>
<path d="M79.5 38H84.5V41H79.5V38Z" fill="#F8B84E"/>
<path d="M88.499 35.999V42.999H97.499V35.999H88.499ZM89.499 36.999H96.499V41.999H89.499V36.999Z" fill="#2B4255"/>
<path fill-rule="evenodd" clip-rule="evenodd" d="M90.999 42.8999V45.1H91.999V42.8999H90.999ZM93.999 42.8999V45.1H94.999V42.8999H93.999Z" fill="#2B4255"/>
<path fill-rule="evenodd" clip-rule="evenodd" d="M89.999 44.999V45.999H95.999V44.999H89.999Z" fill="#2B4255"/>
<path d="M90.5 38H95.5V41H90.5V38Z" fill="#F8B84E"/>
<path d="M99.499 35.999V42.999H108.499V35.999H99.499ZM100.499 36.999H107.499V41.999H100.499V36.999Z" fill="#2B4255"/>
<path fill-rule="evenodd" clip-rule="evenodd" d="M101.999 42.8999V45.1H102.999V42.8999H101.999ZM104.999 42.8999V45.1H105.999V42.8999H104.999Z" fill="#2B4255"/>
<path fill-rule="evenodd" clip-rule="evenodd" d="M100.999 44.999V45.999H106.999V44.999H100.999Z" fill="#2B4255"/>
<path d="M101.5 38H106.5V41H101.5V38Z" fill="#F8B84E"/>
<path fill-rule="evenodd" clip-rule="evenodd" d="M92.499 29.999V31.999H93.499V29.999H92.499ZM81.499 31.999V32.999H104.499V31.999H81.499Z" fill="#2B4255"/>
<path fill-rule="evenodd" clip-rule="evenodd" d="M81.499 32.499V34.999H82.499V32.499H81.499ZM92.499 32.499V34.999H93.499V32.499H92.499ZM103.499 32.499V34.999H104.499V32.499H103.499Z" fill="#2B4255"/>
<defs>
<clipPath id="clip0_905_1617">
<rect width="91" height="98" fill="white"/>
</clipPath>
</defs>
</svg>
