<svg width="95" height="99" viewBox="0 0 95 99" fill="none" xmlns="http://www.w3.org/2000/svg">
<g clip-path="url(#clip0_975_639)">
<path d="M67.821 15.9169H77.3055V4.78636H69.8596C67.8037 4.78636 66.1366 3.12495 66.1366 1.07617H54.9678V12.2067H66.1366V7.54963" stroke="#344154" stroke-width="3.27332" stroke-linecap="round" stroke-linejoin="round"/>
<path d="M54.9717 12.2065V26.2553" stroke="#344154" stroke-width="3.27332" stroke-linecap="round" stroke-linejoin="round"/>
<path d="M24.4453 48.3271L29.0018 52.0589C30.3925 53.1995 31.2002 54.8996 31.2002 56.6987V66.4649C31.2002 69.4434 28.7772 71.858 25.7885 71.858" stroke="#344154" stroke-width="3.27332" stroke-miterlimit="10" stroke-linecap="round"/>
<path d="M7.83885 48.3271L3.28234 52.0589C1.88731 53.1995 1.08398 54.8996 1.08398 56.6987V66.4649C1.08398 69.4434 3.50692 71.858 6.49565 71.858" stroke="#344154" stroke-width="3.27332" stroke-miterlimit="10" stroke-linecap="round"/>
<path d="M25.538 58.1533L25.5596 61.3513V93.2279C25.5596 95.819 23.452 97.9238 20.8476 97.9238H19.3662" stroke="#344154" stroke-width="3.27332" stroke-miterlimit="10" stroke-linecap="round"/>
<path d="M6.74662 58.1533L6.7207 61.3513V93.2279C6.7207 95.819 8.82836 97.9238 11.4327 97.9238C14.0327 97.9238 16.1447 95.8233 16.1447 93.2279V74.6296" stroke="#344154" stroke-width="3.27332" stroke-miterlimit="10" stroke-linecap="round"/>
<path d="M16.14 46.7474C21.3686 46.7474 25.6072 42.5233 25.6072 37.3127C25.6072 32.102 21.3686 27.8779 16.14 27.8779C10.9114 27.8779 6.67285 32.102 6.67285 37.3127C6.67285 42.5233 10.9114 46.7474 16.14 46.7474Z" stroke="#344154" stroke-width="3.27332" stroke-miterlimit="10" stroke-linecap="round"/>
<path d="M16.1394 42.4432C13.3019 42.4432 10.9912 40.1405 10.9912 37.3127C10.9912 34.4849 13.3019 32.1821 16.1394 32.1821C18.977 32.1821 21.2876 34.4849 21.2876 37.3127C21.2876 40.1405 18.977 42.4432 16.1394 42.4432Z" fill="#FFC524"/>
<path d="M93.9202 60.0905L63.6572 29.9312C58.8934 25.1837 51.1668 25.1837 46.3986 29.9312L30.7812 45.4951" stroke="#344154" stroke-width="3.27332" stroke-linecap="round" stroke-linejoin="round"/>
<path d="M45.0127 93.9254V43.231" stroke="#344154" stroke-width="3.27332" stroke-miterlimit="10" stroke-linecap="round"/>
<path d="M64.2148 43.231V93.9254" stroke="#344154" stroke-width="3.27332" stroke-miterlimit="10" stroke-linecap="round"/>
<path d="M45.1338 52.7949H64.0897" stroke="#344154" stroke-width="3.27332" stroke-miterlimit="10" stroke-linecap="round"/>
<path d="M45.1338 63.3188H64.0897" stroke="#344154" stroke-width="3.27332" stroke-miterlimit="10" stroke-linecap="round"/>
<path d="M45.1338 73.8379H64.0897" stroke="#344154" stroke-width="3.27332" stroke-miterlimit="10" stroke-linecap="round"/>
<path d="M45.1338 84.3574H64.0897" stroke="#344154" stroke-width="3.27332" stroke-miterlimit="10" stroke-linecap="round"/>
</g>
<defs>
<clipPath id="clip0_975_639">
<rect width="95" height="99" fill="white"/>
</clipPath>
</defs>
</svg>
