<svg width="44" height="44" viewBox="0 0 44 44" fill="none" xmlns="http://www.w3.org/2000/svg">
<circle cx="22" cy="22" r="22" fill="#D61E46"/>
<g clip-path="url(#clip0_995_4756)">
<path d="M31.4444 14.3333H13.5555C13.2167 14.3333 12.8917 14.468 12.652 14.7076C12.4124 14.9472 12.2778 15.2722 12.2778 15.6111V28.3889C12.2778 28.7278 12.4124 29.0528 12.652 29.2924C12.8917 29.5321 13.2167 29.6667 13.5555 29.6667H31.4444C31.7833 29.6667 32.1083 29.5321 32.348 29.2924C32.5876 29.0528 32.7222 28.7278 32.7222 28.3889V15.6111C32.7222 15.2722 32.5876 14.9472 32.348 14.7076C32.1083 14.468 31.7833 14.3333 31.4444 14.3333ZM30.4605 28.3889H14.6161L19.0883 23.7633L18.1683 22.8753L13.5555 27.6478V16.5822L21.4969 24.4853C21.7363 24.7233 22.0602 24.8569 22.3978 24.8569C22.7353 24.8569 23.0592 24.7233 23.2986 24.4853L31.4444 16.3842V27.5647L26.7422 22.8625L25.8414 23.7633L30.4605 28.3889ZM14.3925 15.6111H30.4094L22.3978 23.5781L14.3925 15.6111Z" fill="white"/>
</g>
<defs>
<clipPath id="clip0_995_4756">
<rect width="23" height="18" fill="white" transform="translate(11 13.5)"/>
</clipPath>
</defs>
</svg>
