<svg width="37" height="37" viewBox="0 0 37 37" fill="none" xmlns="http://www.w3.org/2000/svg">
<path d="M18.5 0C28.7173 2.57703e-07 37 8.28273 37 18.5C37 28.7173 28.7173 37 18.5 37C8.28273 37 2.5772e-07 28.7173 0 18.5C0 8.28273 8.28273 0 18.5 0ZM23.3662 15.0264C21.1404 15.0264 20.1433 16.2497 19.5869 17.1074V15.3232H15.3945C15.4498 16.5075 15.3945 27.9199 15.3945 27.9199H19.5869V20.8848C19.5869 20.5084 19.6148 20.1328 19.7256 19.8633C20.0286 19.1112 20.7187 18.332 21.877 18.332C23.3943 18.3322 24.0009 19.4872 24.001 21.1797V27.9189H28.1934V20.6963C28.1932 16.8274 26.125 15.0264 23.3662 15.0264ZM8.88086 27.9189H13.0742V15.3223H8.88086V27.9189ZM11.0049 9.25C9.57086 9.25014 8.63381 10.1908 8.63379 11.4258C8.63379 12.6353 9.54365 13.6035 10.9512 13.6035H10.9775C12.4394 13.6035 13.3496 12.6353 13.3496 11.4258C13.3224 10.1907 12.4391 9.25 11.0049 9.25Z" fill="white"/>
</svg>
