<svg width="100" height="100" viewBox="0 0 100 100" fill="none" xmlns="http://www.w3.org/2000/svg">
<g filter="url(#filter0_ii_975_525)">
<path d="M0 25C0 11.1929 11.1929 0 25 0H75C88.8071 0 100 11.1929 100 25V75C100 88.8071 88.8071 100 75 100H0V25Z" fill="white"/>
</g>
<path d="M25 0.5H75C88.531 0.5 99.5 11.469 99.5 25V75C99.5 88.531 88.531 99.5 75 99.5H0.5V25C0.5 11.469 11.469 0.5 25 0.5Z" stroke="white"/>
<path d="M44.3664 46.0313H49.4037C49.8637 46.0313 50.3049 45.8486 50.6301 45.5233C50.9554 45.1981 51.1381 44.7569 51.1381 44.2969C51.1381 43.837 50.9554 43.3958 50.6301 43.0705C50.3049 42.7453 49.8637 42.5626 49.4037 42.5626H44.3664C43.9064 42.5626 43.4652 42.7453 43.14 43.0705C42.8147 43.3958 42.632 43.837 42.632 44.2969C42.632 44.7569 42.8147 45.1981 43.14 45.5233C43.4652 45.8486 43.9064 46.0313 44.3664 46.0313ZM66.2324 27H32.7674C31.2395 27.0056 29.7758 27.6151 28.6954 28.6955C27.615 29.7759 27.0056 31.2396 27 32.7675V66.2323C27.0055 67.7602 27.615 69.224 28.6954 70.3045C29.7757 71.3849 31.2395 71.9944 32.7674 72H66.2322C67.7601 71.9945 69.224 71.3852 70.3045 70.3048C71.385 69.2244 71.9944 67.7606 72 66.2326V32.7675C71.9945 31.2396 71.385 29.7758 70.3046 28.6954C69.2242 27.6149 67.7604 27.0055 66.2324 27ZM63.8192 48.775L63.7749 54.7947C63.7574 57.1958 62.7932 59.4929 61.0918 61.1872C59.3904 62.8815 57.0893 63.8362 54.6882 63.8438H44.2504C41.8464 63.8394 39.5416 62.8851 37.8382 61.1888C36.1347 59.4925 35.1708 57.1917 35.1563 54.7877V44.2255C35.1693 41.8199 36.1323 39.5168 37.8357 37.8181C39.5391 36.1194 41.8447 35.1626 44.2503 35.1562H50.6037C52.0673 35.4101 53.4563 35.9858 54.6705 36.8417C55.8846 37.6976 56.8935 38.8124 57.6244 40.1056C58.1251 41.0565 58.4034 42.1087 58.4385 43.1829C58.5901 44.3204 58.6699 45.1656 59.1811 45.6341C59.8997 46.2854 62.5725 45.8466 63.1011 46.2605L63.5034 46.5752L63.7484 47.0739L63.8294 47.4734L63.8192 48.775ZM54.6009 52.9688H44.3664C44.1404 52.9619 43.9154 53.0004 43.7046 53.0821C43.4938 53.1638 43.3016 53.287 43.1394 53.4444C42.9771 53.6018 42.8481 53.7902 42.76 53.9983C42.6719 54.2065 42.6265 54.4303 42.6265 54.6563C42.6265 54.8824 42.6719 55.1061 42.76 55.3143C42.8481 55.5224 42.9771 55.7108 43.1394 55.8682C43.3016 56.0256 43.4938 56.1488 43.7046 56.2305C43.9154 56.3122 44.1404 56.3507 44.3664 56.3438H54.601C54.8262 56.3495 55.0502 56.3101 55.2599 56.2278C55.4697 56.1456 55.6608 56.0222 55.8221 55.8649C55.9834 55.7077 56.1116 55.5197 56.1991 55.3121C56.2866 55.1046 56.3317 54.8816 56.3317 54.6563C56.3317 54.431 56.2866 54.208 56.1991 54.0005C56.1116 53.7929 55.9834 53.6049 55.8221 53.4477C55.6608 53.2904 55.4697 53.167 55.2599 53.0848C55.0502 53.0025 54.8262 52.9631 54.601 52.9688H54.6009Z" fill="black"/>
<defs>
<filter id="filter0_ii_975_525" x="-4" y="0" width="108" height="104" filterUnits="userSpaceOnUse" color-interpolation-filters="sRGB">
<feFlood flood-opacity="0" result="BackgroundImageFix"/>
<feBlend mode="normal" in="SourceGraphic" in2="BackgroundImageFix" result="shape"/>
<feColorMatrix in="SourceAlpha" type="matrix" values="0 0 0 0 0 0 0 0 0 0 0 0 0 0 0 0 0 0 127 0" result="hardAlpha"/>
<feOffset dx="4" dy="4"/>
<feGaussianBlur stdDeviation="15"/>
<feComposite in2="hardAlpha" operator="arithmetic" k2="-1" k3="1"/>
<feColorMatrix type="matrix" values="0 0 0 0 0.819608 0 0 0 0 0.85098 0 0 0 0 0.901961 0 0 0 1 0"/>
<feBlend mode="normal" in2="shape" result="effect1_innerShadow_975_525"/>
<feColorMatrix in="SourceAlpha" type="matrix" values="0 0 0 0 0 0 0 0 0 0 0 0 0 0 0 0 0 0 127 0" result="hardAlpha"/>
<feOffset dx="-4" dy="4"/>
<feGaussianBlur stdDeviation="15"/>
<feComposite in2="hardAlpha" operator="arithmetic" k2="-1" k3="1"/>
<feColorMatrix type="matrix" values="0 0 0 0 1 0 0 0 0 1 0 0 0 0 1 0 0 0 0.5 0"/>
<feBlend mode="normal" in2="effect1_innerShadow_975_525" result="effect2_innerShadow_975_525"/>
</filter>
</defs>
</svg>
