<svg width="192" height="30" viewBox="0 0 192 30" fill="none" xmlns="http://www.w3.org/2000/svg">
<path d="M0.736567 1.42497C0.50186 1.27948 0.429536 0.971273 0.575026 0.736567C0.720516 0.50186 1.02873 0.429535 1.26343 0.575026L0.736567 1.42497ZM192 1L189.232 6.06668L186.228 1.13614L192 1ZM1.26343 0.575026C2.15497 1.12767 3.04972 1.6728 3.94764 2.21033L3.434 3.06834C2.53163 2.52814 1.63247 1.98033 0.736567 1.42497L1.26343 0.575026ZM9.39081 5.35406C11.2251 6.37521 13.0719 7.36508 14.9307 8.32315L14.4726 9.21203C12.6042 8.24903 10.748 7.25411 8.9044 6.22779L9.39081 5.35406ZM20.5636 11.1111C22.459 12.0109 24.3663 12.8779 26.2851 13.7117L25.8866 14.6288C23.9576 13.7906 22.0402 12.919 20.1348 12.0145L20.5636 11.1111ZM32.0904 16.1186C34.0406 16.8887 36.0019 17.6247 37.9741 18.3261L37.639 19.2683C35.656 18.563 33.6839 17.823 31.7231 17.0487L32.0904 16.1186ZM43.9305 20.3284C45.9278 20.9613 47.9355 21.5588 49.9532 22.1206L49.685 23.084C47.6559 22.519 45.6369 21.9181 43.6284 21.2817L43.9305 20.3284ZM56.0356 23.6979C58.071 24.1871 60.1161 24.6401 62.1703 25.0563L61.9718 26.0364C59.9057 25.6178 57.8489 25.1622 55.8019 24.6702L56.0356 23.6979ZM68.35 26.1924C70.4137 26.5333 72.486 26.8371 74.5668 27.1035L74.4398 28.0954C72.347 27.8275 70.2626 27.5219 68.1871 27.1791L68.35 26.1924ZM80.8125 27.7877C82.8937 27.9773 84.9827 28.1295 87.0791 28.2438L87.0247 29.2423C84.9161 29.1274 82.815 28.9743 80.7218 28.7835L80.8125 27.7877ZM93.3583 28.4716C94.4038 28.4905 95.451 28.5 96.5 28.5V29.5C95.445 29.5 94.3917 29.4904 93.3402 29.4714L93.3583 28.4716ZM96.5 28.5C97.5489 28.5 98.5962 28.4905 99.6417 28.4716L99.6598 29.4714C98.6083 29.4904 97.555 29.5 96.5 29.5V28.5ZM105.921 28.2438C108.017 28.1295 110.106 27.9773 112.187 27.7877L112.278 28.7835C110.185 28.9743 108.084 29.1274 105.975 29.2423L105.921 28.2438ZM118.433 27.1035C120.514 26.8371 122.586 26.5333 124.65 26.1924L124.813 27.1791C122.737 27.5219 120.653 27.8275 118.56 28.0954L118.433 27.1035ZM130.83 25.0563C132.884 24.6401 134.929 24.1871 136.964 23.6979L137.198 24.6702C135.151 25.1622 133.094 25.6178 131.028 26.0364L130.83 25.0563ZM143.047 22.1206C145.065 21.5588 147.072 20.9613 149.07 20.3284L149.372 21.2817C147.363 21.9181 145.344 22.519 143.315 23.084L143.047 22.1206ZM155.026 18.3261C156.998 17.6247 158.959 16.8887 160.91 16.1186L161.277 17.0487C159.316 17.823 157.344 18.563 155.361 19.2683L155.026 18.3261ZM166.715 13.7117C168.634 12.8779 170.541 12.0109 172.436 11.1111L172.865 12.0145C170.96 12.919 169.042 13.7906 167.113 14.6288L166.715 13.7117ZM178.069 8.32315C179.928 7.36508 181.775 6.37522 183.609 5.35406L184.096 6.22779C182.252 7.25411 180.396 8.24903 178.527 9.21204L178.069 8.32315ZM0.736567 1.42497C0.50186 1.27948 0.429536 0.971273 0.575026 0.736567C0.720516 0.50186 1.02873 0.429535 1.26343 0.575026L0.736567 1.42497ZM192 1L189.232 6.06668L186.228 1.13614L192 1ZM1.26343 0.575026C2.15497 1.12767 3.04972 1.6728 3.94764 2.21033L3.434 3.06834C2.53163 2.52814 1.63247 1.98033 0.736567 1.42497L1.26343 0.575026ZM9.39081 5.35406C11.2251 6.37521 13.0719 7.36508 14.9307 8.32315L14.4726 9.21203C12.6042 8.24903 10.748 7.25411 8.9044 6.22779L9.39081 5.35406ZM20.5636 11.1111C22.459 12.0109 24.3663 12.8779 26.2851 13.7117L25.8866 14.6288C23.9576 13.7906 22.0402 12.919 20.1348 12.0145L20.5636 11.1111ZM32.0904 16.1186C34.0406 16.8887 36.0019 17.6247 37.9741 18.3261L37.639 19.2683C35.656 18.563 33.6839 17.823 31.7231 17.0487L32.0904 16.1186ZM43.9305 20.3284C45.9278 20.9613 47.9355 21.5588 49.9532 22.1206L49.685 23.084C47.6559 22.519 45.6369 21.9181 43.6284 21.2817L43.9305 20.3284ZM56.0356 23.6979C58.071 24.1871 60.1161 24.6401 62.1703 25.0563L61.9718 26.0364C59.9057 25.6178 57.8489 25.1622 55.8019 24.6702L56.0356 23.6979ZM68.35 26.1924C70.4137 26.5333 72.486 26.8371 74.5668 27.1035L74.4398 28.0954C72.347 27.8275 70.2626 27.5219 68.1871 27.1791L68.35 26.1924ZM80.8125 27.7877C82.8937 27.9773 84.9827 28.1295 87.0791 28.2438L87.0247 29.2423C84.9161 29.1274 82.815 28.9743 80.7218 28.7835L80.8125 27.7877ZM93.3583 28.4716C94.4038 28.4905 95.451 28.5 96.5 28.5V29.5C95.445 29.5 94.3917 29.4904 93.3402 29.4714L93.3583 28.4716ZM96.5 28.5C97.5489 28.5 98.5962 28.4905 99.6417 28.4716L99.6598 29.4714C98.6083 29.4904 97.555 29.5 96.5 29.5V28.5ZM105.921 28.2438C108.017 28.1295 110.106 27.9773 112.187 27.7877L112.278 28.7835C110.185 28.9743 108.084 29.1274 105.975 29.2423L105.921 28.2438ZM118.433 27.1035C120.514 26.8371 122.586 26.5333 124.65 26.1924L124.813 27.1791C122.737 27.5219 120.653 27.8275 118.56 28.0954L118.433 27.1035ZM130.83 25.0563C132.884 24.6401 134.929 24.1871 136.964 23.6979L137.198 24.6702C135.151 25.1622 133.094 25.6178 131.028 26.0364L130.83 25.0563ZM143.047 22.1206C145.065 21.5588 147.072 20.9613 149.07 20.3284L149.372 21.2817C147.363 21.9181 145.344 22.519 143.315 23.084L143.047 22.1206ZM155.026 18.3261C156.998 17.6247 158.959 16.8887 160.91 16.1186L161.277 17.0487C159.316 17.823 157.344 18.563 155.361 19.2683L155.026 18.3261ZM166.715 13.7117C168.634 12.8779 170.541 12.0109 172.436 11.1111L172.865 12.0145C170.96 12.919 169.042 13.7906 167.113 14.6288L166.715 13.7117ZM178.069 8.32315C179.928 7.36508 181.775 6.37522 183.609 5.35406L184.096 6.22779C182.252 7.25411 180.396 8.24903 178.527 9.21204L178.069 8.32315Z" fill="#1B1D21"/>
</svg>
