<svg width="100" height="100" viewBox="0 0 100 100" fill="none" xmlns="http://www.w3.org/2000/svg">
<g filter="url(#filter0_ii_975_507)">
<path d="M0 25C0 11.1929 11.1929 0 25 0H75C88.8071 0 100 11.1929 100 25V75C100 88.8071 88.8071 100 75 100H0V25Z" fill="white"/>
</g>
<path d="M25 0.5H75C88.531 0.5 99.5 11.469 99.5 25V75C99.5 88.531 88.531 99.5 75 99.5H0.5V25C0.5 11.469 11.469 0.5 25 0.5Z" stroke="white"/>
<path d="M66.375 27H32.625C31.1332 27 29.7024 27.5926 28.6475 28.6475C27.5926 29.7024 27 31.1332 27 32.625V66.375C27 67.8668 27.5926 69.2976 28.6475 70.3525C29.7024 71.4074 31.1332 72 32.625 72H66.375C67.8668 72 69.2976 71.4074 70.3525 70.3525C71.4074 69.2976 72 67.8668 72 66.375V32.625C72 31.1332 71.4074 29.7024 70.3525 28.6475C69.2976 27.5926 67.8668 27 66.375 27ZM55.5075 35.2575C55.5045 35.0587 55.5414 34.8613 55.6161 34.677C55.6908 34.4928 55.8017 34.3254 55.9423 34.1848C56.0829 34.0442 56.2503 33.9333 56.4345 33.8586C56.6188 33.7839 56.8162 33.747 57.015 33.75C57.4053 33.7613 57.7764 33.9214 58.0525 34.1975C58.3286 34.4736 58.4887 34.8447 58.5 35.235V55.26C58.4551 55.6252 58.2782 55.9614 58.0026 56.2053C57.727 56.4491 57.3717 56.5837 57.0037 56.5837C56.6358 56.5837 56.2805 56.4491 56.0049 56.2053C55.7293 55.9614 55.5524 55.6252 55.5075 55.26V35.2575ZM47.9925 34.4925C47.9925 34.0927 48.1513 33.7092 48.434 33.4265C48.7167 33.1438 49.1002 32.985 49.5 32.985C49.8998 32.985 50.2833 33.1438 50.566 33.4265C50.8487 33.7092 51.0075 34.0927 51.0075 34.4925V56.25C51.0075 56.6498 50.8487 57.0333 50.566 57.316C50.2833 57.5987 49.8998 57.7575 49.5 57.7575C49.1002 57.7575 48.7167 57.5987 48.434 57.316C48.1513 57.0333 47.9925 56.6498 47.9925 56.25V34.4925ZM40.5 35.2575C40.5449 34.8923 40.7218 34.5561 40.9974 34.3122C41.273 34.0684 41.6283 33.9338 41.9963 33.9338C42.3642 33.9338 42.7195 34.0684 42.9951 34.3122C43.2707 34.5561 43.4476 34.8923 43.4925 35.2575V55.2825C43.4925 55.4794 43.4534 55.6744 43.3773 55.856C43.3013 56.0377 43.1899 56.2024 43.0496 56.3406C42.9093 56.4788 42.743 56.5877 42.5602 56.661C42.3774 56.7343 42.1819 56.7705 41.985 56.7675C41.5947 56.7562 41.2236 56.5961 40.9475 56.32C40.6714 56.0439 40.5113 55.6728 40.5 55.2825V35.2575ZM33.0075 38.25C33.0524 37.8848 33.2293 37.5486 33.5049 37.3047C33.7805 37.0609 34.1358 36.9263 34.5037 36.9263C34.8717 36.9263 35.227 37.0609 35.5026 37.3047C35.7782 37.5486 35.9551 37.8848 36 38.25V51.75C35.9941 52.1459 35.8327 52.5236 35.5506 52.8014C35.2685 53.0793 34.8884 53.235 34.4925 53.235C34.1005 53.2292 33.7261 53.0709 33.4489 52.7936C33.1716 52.5164 33.0133 52.142 33.0075 51.75V38.25ZM65.475 61.1325C60.849 64.5048 55.2203 66.2172 49.5 65.9925C43.7797 66.2172 38.151 64.5048 33.525 61.1325C33.2901 60.8578 33.1617 60.5078 33.1632 60.1463C33.1648 59.7849 33.2961 59.436 33.5334 59.1633C33.7706 58.8906 34.098 58.7122 34.4558 58.6607C34.8135 58.6091 35.1779 58.6879 35.4825 58.8825C39.5817 61.7453 44.5037 63.1911 49.5 63C54.4999 63.1928 59.4247 61.7383 63.5175 58.86C63.8221 58.6654 64.1865 58.5866 64.5442 58.6382C64.902 58.6897 65.2293 58.8681 65.4666 59.1408C65.7039 59.4135 65.8352 59.7624 65.8368 60.1238C65.8383 60.4853 65.7099 60.8353 65.475 61.11V61.1325ZM65.9925 51.75C65.9476 52.1152 65.7707 52.4514 65.4951 52.6953C65.2195 52.9391 64.8642 53.0737 64.4963 53.0737C64.1283 53.0737 63.773 52.9391 63.4974 52.6953C63.2218 52.4514 63.0449 52.1152 63 51.75V38.25C63.0059 37.8541 63.1673 37.4764 63.4494 37.1986C63.7315 36.9207 64.1116 36.765 64.5075 36.765C64.9013 36.765 65.2791 36.9215 65.5576 37.1999C65.836 37.4784 65.9925 37.8562 65.9925 38.25V51.75Z" fill="black"/>
<defs>
<filter id="filter0_ii_975_507" x="-4" y="0" width="108" height="104" filterUnits="userSpaceOnUse" color-interpolation-filters="sRGB">
<feFlood flood-opacity="0" result="BackgroundImageFix"/>
<feBlend mode="normal" in="SourceGraphic" in2="BackgroundImageFix" result="shape"/>
<feColorMatrix in="SourceAlpha" type="matrix" values="0 0 0 0 0 0 0 0 0 0 0 0 0 0 0 0 0 0 127 0" result="hardAlpha"/>
<feOffset dx="4" dy="4"/>
<feGaussianBlur stdDeviation="15"/>
<feComposite in2="hardAlpha" operator="arithmetic" k2="-1" k3="1"/>
<feColorMatrix type="matrix" values="0 0 0 0 0.819608 0 0 0 0 0.85098 0 0 0 0 0.901961 0 0 0 1 0"/>
<feBlend mode="normal" in2="shape" result="effect1_innerShadow_975_507"/>
<feColorMatrix in="SourceAlpha" type="matrix" values="0 0 0 0 0 0 0 0 0 0 0 0 0 0 0 0 0 0 127 0" result="hardAlpha"/>
<feOffset dx="-4" dy="4"/>
<feGaussianBlur stdDeviation="15"/>
<feComposite in2="hardAlpha" operator="arithmetic" k2="-1" k3="1"/>
<feColorMatrix type="matrix" values="0 0 0 0 1 0 0 0 0 1 0 0 0 0 1 0 0 0 0.5 0"/>
<feBlend mode="normal" in2="effect1_innerShadow_975_507" result="effect2_innerShadow_975_507"/>
</filter>
</defs>
</svg>
