<svg width="192" height="30" viewBox="0 0 192 30" fill="none" xmlns="http://www.w3.org/2000/svg">
<path d="M0.736567 28.575C0.50186 28.7205 0.429536 29.0287 0.575026 29.2634C0.720516 29.4981 1.02873 29.5705 1.26343 29.425L0.736567 28.575ZM192 29L189.232 23.9333L186.228 28.8639L192 29ZM1.26343 29.425C2.15497 28.8723 3.04972 28.3272 3.94764 27.7897L3.434 26.9317C2.53163 27.4719 1.63247 28.0197 0.736567 28.575L1.26343 29.425ZM9.39081 24.6459C11.2251 23.6248 13.0719 22.6349 14.9307 21.6768L14.4726 20.788C12.6042 21.751 10.748 22.7459 8.9044 23.7722L9.39081 24.6459ZM20.5636 18.8889C22.459 17.9891 24.3663 17.1221 26.2851 16.2883L25.8866 15.3712C23.9576 16.2094 22.0402 17.081 20.1348 17.9855L20.5636 18.8889ZM32.0904 13.8814C34.0406 13.1113 36.0019 12.3753 37.9741 11.6739L37.639 10.7317C35.656 11.437 33.6839 12.177 31.7231 12.9513L32.0904 13.8814ZM43.9305 9.67156C45.9278 9.03873 47.9355 8.44117 49.9532 7.87939L49.685 6.91603C47.6559 7.48098 45.6369 8.0819 43.6284 8.71826L43.9305 9.67156ZM56.0356 6.30207C58.071 5.81285 60.1161 5.35988 62.1703 4.94367L61.9718 3.96358C59.9057 4.38218 57.8489 4.83775 55.8019 5.32976L56.0356 6.30207ZM68.35 3.80758C70.4137 3.46673 72.486 3.16287 74.5668 2.8965L74.4398 1.9046C72.347 2.17251 70.2626 2.47813 68.1871 2.82095L68.35 3.80758ZM80.8125 2.21235C82.8937 2.02269 84.9827 1.87049 87.0791 1.75623L87.0247 0.757715C84.9161 0.87263 82.815 1.02572 80.7218 1.21648L80.8125 2.21235ZM93.3583 1.52843C94.4038 1.5095 95.451 1.5 96.5 1.5V0.5C95.445 0.5 94.3917 0.509552 93.3402 0.528593L93.3583 1.52843ZM96.5 1.5C97.5489 1.5 98.5962 1.5095 99.6417 1.52843L99.6598 0.528593C98.6083 0.509552 97.555 0.5 96.5 0.5V1.5ZM105.921 1.75623C108.017 1.87049 110.106 2.02269 112.187 2.21235L112.278 1.21648C110.185 1.02572 108.084 0.872629 105.975 0.757714L105.921 1.75623ZM118.433 2.8965C120.514 3.16287 122.586 3.46673 124.65 3.80758L124.813 2.82095C122.737 2.47813 120.653 2.17251 118.56 1.9046L118.433 2.8965ZM130.83 4.94367C132.884 5.35988 134.929 5.81286 136.964 6.30208L137.198 5.32977C135.151 4.83776 133.094 4.38218 131.028 3.96358L130.83 4.94367ZM143.047 7.87939C145.065 8.44117 147.072 9.03873 149.07 9.67156L149.372 8.71827C147.363 8.08191 145.344 7.48099 143.315 6.91603L143.047 7.87939ZM155.026 11.6739C156.998 12.3753 158.959 13.1113 160.91 13.8814L161.277 12.9513C159.316 12.177 157.344 11.437 155.361 10.7317L155.026 11.6739ZM166.715 16.2883C168.634 17.1221 170.541 17.9891 172.436 18.8889L172.865 17.9855C170.96 17.081 169.042 16.2094 167.113 15.3712L166.715 16.2883ZM178.069 21.6768C179.928 22.6349 181.775 23.6248 183.609 24.6459L184.096 23.7722C182.252 22.7459 180.396 21.751 178.527 20.788L178.069 21.6768ZM0.736567 28.575C0.50186 28.7205 0.429536 29.0287 0.575026 29.2634C0.720516 29.4981 1.02873 29.5705 1.26343 29.425L0.736567 28.575ZM192 29L189.232 23.9333L186.228 28.8639L192 29ZM1.26343 29.425C2.15497 28.8723 3.04972 28.3272 3.94764 27.7897L3.434 26.9317C2.53163 27.4719 1.63247 28.0197 0.736567 28.575L1.26343 29.425ZM9.39081 24.6459C11.2251 23.6248 13.0719 22.6349 14.9307 21.6768L14.4726 20.788C12.6042 21.751 10.748 22.7459 8.9044 23.7722L9.39081 24.6459ZM20.5636 18.8889C22.459 17.9891 24.3663 17.1221 26.2851 16.2883L25.8866 15.3712C23.9576 16.2094 22.0402 17.081 20.1348 17.9855L20.5636 18.8889ZM32.0904 13.8814C34.0406 13.1113 36.0019 12.3753 37.9741 11.6739L37.639 10.7317C35.656 11.437 33.6839 12.177 31.7231 12.9513L32.0904 13.8814ZM43.9305 9.67156C45.9278 9.03873 47.9355 8.44117 49.9532 7.87939L49.685 6.91603C47.6559 7.48098 45.6369 8.0819 43.6284 8.71826L43.9305 9.67156ZM56.0356 6.30207C58.071 5.81285 60.1161 5.35988 62.1703 4.94367L61.9718 3.96358C59.9057 4.38218 57.8489 4.83775 55.8019 5.32976L56.0356 6.30207ZM68.35 3.80758C70.4137 3.46673 72.486 3.16287 74.5668 2.8965L74.4398 1.9046C72.347 2.17251 70.2626 2.47813 68.1871 2.82095L68.35 3.80758ZM80.8125 2.21235C82.8937 2.02269 84.9827 1.87049 87.0791 1.75623L87.0247 0.757715C84.9161 0.87263 82.815 1.02572 80.7218 1.21648L80.8125 2.21235ZM93.3583 1.52843C94.4038 1.5095 95.451 1.5 96.5 1.5V0.5C95.445 0.5 94.3917 0.509552 93.3402 0.528593L93.3583 1.52843ZM96.5 1.5C97.5489 1.5 98.5962 1.5095 99.6417 1.52843L99.6598 0.528593C98.6083 0.509552 97.555 0.5 96.5 0.5V1.5ZM105.921 1.75623C108.017 1.87049 110.106 2.02269 112.187 2.21235L112.278 1.21648C110.185 1.02572 108.084 0.872629 105.975 0.757714L105.921 1.75623ZM118.433 2.8965C120.514 3.16287 122.586 3.46673 124.65 3.80758L124.813 2.82095C122.737 2.47813 120.653 2.17251 118.56 1.9046L118.433 2.8965ZM130.83 4.94367C132.884 5.35988 134.929 5.81286 136.964 6.30208L137.198 5.32977C135.151 4.83776 133.094 4.38218 131.028 3.96358L130.83 4.94367ZM143.047 7.87939C145.065 8.44117 147.072 9.03873 149.07 9.67156L149.372 8.71827C147.363 8.08191 145.344 7.48099 143.315 6.91603L143.047 7.87939ZM155.026 11.6739C156.998 12.3753 158.959 13.1113 160.91 13.8814L161.277 12.9513C159.316 12.177 157.344 11.437 155.361 10.7317L155.026 11.6739ZM166.715 16.2883C168.634 17.1221 170.541 17.9891 172.436 18.8889L172.865 17.9855C170.96 17.081 169.042 16.2094 167.113 15.3712L166.715 16.2883ZM178.069 21.6768C179.928 22.6349 181.775 23.6248 183.609 24.6459L184.096 23.7722C182.252 22.7459 180.396 21.751 178.527 20.788L178.069 21.6768Z" fill="#1B1D21"/>
</svg>
