<svg width="231" height="61" viewBox="0 0 231 61" fill="none" xmlns="http://www.w3.org/2000/svg">
<path d="M134 16.9412L147.429 12L134 6.91765V0L157 9.17647V14.8235L134 24V16.9412Z" fill="#A100FF"/>
<path d="M8.76499 61C3.95838 61 0 58.6104 0 53.2691V52.9879C0 46.5221 5.65483 44.2731 12.582 44.2731H15.8335V43.008C15.8335 40.3373 14.7026 38.7912 11.8752 38.7912C9.33048 38.7912 8.05814 40.1968 7.91677 42.1647H0.848225C1.41371 36.261 6.07895 33.4498 12.2993 33.4498C18.661 33.4498 23.3262 36.1205 23.3262 42.7269V60.4377H16.1163V57.3454C14.7026 59.3133 12.2993 61 8.76499 61ZM15.8335 51.7229V49.1928H12.8647C9.18911 49.1928 7.35128 50.1767 7.35128 52.5663V52.8474C7.35128 54.6747 8.48225 55.9398 11.0269 55.9398C13.5716 55.7992 15.8335 54.3936 15.8335 51.7229ZM40.1493 61C32.798 61 27.4259 56.502 27.4259 47.506V47.0843C27.4259 38.0884 33.0808 33.3092 40.1493 33.3092C46.2283 33.3092 51.1763 36.4016 51.7417 43.2892H44.6732C44.2491 40.759 42.8354 39.0723 40.2907 39.0723C37.1805 39.0723 34.9186 41.6024 34.9186 46.8032V47.6466C34.9186 52.988 36.8978 55.3775 40.2907 55.3775C42.8354 55.3775 44.6732 53.5502 45.0973 50.5984H51.8831C51.459 56.7831 47.3592 61 40.1493 61ZM67.858 61C60.5067 61 55.1346 56.502 55.1346 47.506V47.0843C55.1346 38.0884 60.7895 33.3092 67.858 33.3092C73.937 33.3092 78.8849 36.4016 79.4504 43.2892H72.3819C71.9578 40.759 70.5441 39.0723 67.9994 39.0723C64.8892 39.0723 62.6273 41.6024 62.6273 46.8032V47.6466C62.6273 52.988 64.6065 55.3775 67.9994 55.3775C70.5441 55.3775 72.3819 53.5502 72.806 50.5984H79.5918C79.1677 56.7831 75.0679 61 67.858 61ZM95.7081 61C88.074 61 82.8433 56.502 82.8433 47.6466V47.0843C82.8433 38.2289 88.3568 33.3092 95.5667 33.3092C102.211 33.3092 107.725 36.9639 107.725 45.8193V49.0522H90.336C90.6187 53.8313 92.7393 55.6586 95.8495 55.6586C98.6769 55.6586 100.232 54.1124 100.797 52.2851H107.725C106.876 57.2048 102.635 61 95.7081 61ZM90.4774 44.1325H100.373C100.232 40.1968 98.3941 38.51 95.4253 38.51C93.1634 38.6506 91.0428 39.9157 90.4774 44.1325ZM112.248 34.012H119.741V37.9478C121.013 35.4177 123.7 33.4498 127.799 33.4498C132.606 33.4498 135.857 36.4016 135.857 42.7269V60.4377H128.365V43.8514C128.365 40.759 127.092 39.3534 124.406 39.3534C121.862 39.3534 119.741 40.8996 119.741 44.2731V60.4377H112.248V34.012ZM149.57 26V34.012H154.66V39.494H149.57V52.004C149.57 53.9719 150.419 54.9558 152.256 54.9558C153.387 54.9558 154.094 54.8153 154.801 54.5341V60.2972C153.953 60.5783 152.398 60.8594 150.56 60.8594C144.764 60.8594 142.078 58.1888 142.078 52.8474V39.494H138.968V34.012H142.078V29.0924L149.57 26ZM182.651 60.4377H175.3V56.502C174.028 59.0321 171.483 61 167.524 61C162.718 61 159.184 58.0482 159.184 51.8635V34.012H166.676V50.8795C166.676 53.9719 167.949 55.3775 170.493 55.3775C173.038 55.3775 175.159 53.6908 175.159 50.4578V34.012H182.651V60.4377ZM188.165 34.012H195.657V38.9317C197.212 35.4177 199.757 33.7309 203.715 33.7309V41.0402C198.626 41.0402 195.657 42.5863 195.657 46.9438V60.5783H188.165V34.012ZM218.842 61C211.208 61 205.977 56.502 205.977 47.6466V47.0843C205.977 38.2289 211.491 33.3092 218.701 33.3092C225.345 33.3092 230.859 36.9639 230.859 45.8193V49.0522H213.611C213.894 53.8313 216.015 55.6586 219.125 55.6586C221.952 55.6586 223.507 54.1124 224.073 52.2851H231C229.869 57.2048 225.769 61 218.842 61ZM213.47 44.1325H223.507C223.366 40.1968 221.528 38.51 218.559 38.51C216.297 38.6506 214.177 39.9157 213.47 44.1325Z" fill="black"/>
</svg>
