<svg width="198" height="43" viewBox="0 0 198 43" fill="none" xmlns="http://www.w3.org/2000/svg">
<g clip-path="url(#clip0_972_705)">
<path d="M187.506 34.7612C187.506 31.8643 189.858 29.514 192.754 29.514C195.651 29.514 198 31.8643 198 34.7612C198 37.658 195.651 40.0069 192.754 40.0069C189.858 40.0069 187.506 37.658 187.506 34.7612Z" fill="#86BC24"/>
<path d="M20.1411 20.8651C20.1411 17.5416 19.499 15.0758 18.2144 13.4694C16.928 11.8647 14.9801 11.0631 12.3604 11.0631H9.57424V31.3869H11.7062C14.6155 31.3869 16.7474 30.5242 18.1051 28.7935C19.461 27.0659 20.1411 24.4224 20.1411 20.8651ZM30.0781 20.5187C30.0781 26.5738 28.4505 31.2396 25.1947 34.5144C21.9391 37.7908 17.3626 39.4289 11.463 39.4289H0V3.1468H12.2634C17.9515 3.1468 22.343 4.63637 25.4377 7.61371C28.5309 10.5926 30.0781 14.8924 30.0781 20.5192M61.8309 39.4287H70.9523V2.99438H61.8309V39.4287ZM83.7665 25.8385C83.7665 28.1614 84.07 29.9333 84.6762 31.1508C85.2835 32.3702 86.3007 32.979 87.731 32.979C89.1464 32.979 90.1471 32.3702 90.7302 31.1508C91.3132 29.9333 91.6033 28.1614 91.6033 25.8385C91.6033 23.5276 91.3087 21.7846 90.7181 20.6081C90.1258 19.4281 89.116 18.8376 87.6841 18.8376C86.284 18.8376 85.2835 19.4254 84.676 20.5943C84.0702 21.7649 83.7665 23.5124 83.7665 25.8385ZM100.887 25.8385C100.887 30.2643 99.7271 33.717 97.4007 36.1917C95.0761 38.668 91.8219 39.907 87.6385 39.907C83.6268 39.907 80.4333 38.6407 78.0629 36.1081C75.6896 33.5757 74.5036 30.1534 74.5036 25.8387C74.5036 21.4263 75.6654 17.998 77.9916 15.5537C80.3178 13.1091 83.5796 11.8871 87.7795 11.8871C90.3748 11.8871 92.6708 12.4534 94.6599 13.5845C96.6506 14.7153 98.1875 16.3357 99.2671 18.4461C100.348 20.5534 100.887 23.0191 100.887 25.8385ZM104.51 39.4287H113.633V12.3653H104.51V39.4287ZM104.509 9.09165H113.632V2.99304H104.509V9.09165ZM132.116 32.526C133.347 32.526 134.814 32.2131 136.525 31.5922V38.4018C135.295 38.9422 134.126 39.3293 133.014 39.5586C131.903 39.791 130.599 39.9063 129.106 39.9063C126.043 39.9063 123.835 39.1366 122.479 37.5999C121.129 36.0636 120.452 33.7042 120.452 30.5204V19.3637H117.257V12.3678H120.452V5.45636L129.645 3.85773V12.3676H135.465V19.364H129.645V29.8977C129.645 31.6499 130.47 32.526 132.116 32.526ZM153.229 32.526C154.461 32.526 155.928 32.2131 157.639 31.5922V38.4018C156.411 38.9422 155.24 39.3293 154.128 39.5586C153.015 39.791 151.716 39.9063 150.22 39.9063C147.157 39.9063 144.949 39.1366 143.596 37.5999C142.243 36.0636 141.566 33.7042 141.566 30.5204V19.3637H138.37V12.3678H141.566V5.35176L150.757 3.85773V12.3676H156.581V19.364H150.758V29.8977C150.758 31.6499 151.582 32.526 153.229 32.526ZM169.15 22.5415C169.275 21.0598 169.699 19.9741 170.421 19.2804C171.147 18.588 172.043 18.2418 173.115 18.2418C174.284 18.2418 175.214 18.6305 175.903 19.4138C176.597 20.1927 176.958 21.2359 176.987 22.5415H169.15ZM182.015 15.0776C179.846 12.9522 176.77 11.8877 172.79 11.8877C168.607 11.8877 165.387 13.11 163.131 15.5543C160.876 17.9989 159.748 21.5059 159.748 26.0763C159.748 30.5018 160.967 33.915 163.4 36.3108C165.834 38.7066 169.252 39.9061 173.654 39.9061C175.768 39.9061 177.587 39.7619 179.111 39.475C180.627 39.1911 182.094 38.6778 183.517 37.9369L182.115 31.8379C181.081 32.2603 180.097 32.585 179.168 32.7989C177.826 33.1104 176.353 33.2666 174.749 33.2666C172.991 33.2666 171.603 32.8371 170.585 31.9778C169.568 31.1169 169.026 29.9295 168.964 28.4173H185.269V24.2617C185.269 20.2642 184.185 17.2017 182.015 15.0776ZM42.1849 22.5415C42.3094 21.0598 42.7332 19.9741 43.4558 19.2804C44.18 18.588 45.0774 18.2418 46.1512 18.2418C47.3173 18.2418 48.2467 18.6305 48.9376 19.4138C49.6314 20.1927 49.9913 21.2359 50.0233 22.5415H42.1849ZM55.0509 15.0776C52.881 12.9522 49.806 11.8877 45.8247 11.8877C41.6397 11.8877 38.4221 13.11 36.167 15.5543C33.9122 17.9989 32.7825 21.5059 32.7825 26.0763C32.7825 30.5018 34.0002 33.915 36.4359 36.3108C38.8685 38.7066 42.2866 39.9061 46.6888 39.9061C48.8024 39.9061 50.6216 39.7619 52.146 39.475C53.6615 39.1911 55.1284 38.6778 56.5527 37.9369L55.1497 31.8379C54.1155 32.2603 53.1315 32.585 52.2037 32.7989C50.8586 33.1104 49.3871 33.2666 47.7834 33.2666C46.0265 33.2666 44.6373 32.8371 43.6199 31.9778C42.6008 31.1169 42.0604 29.9295 41.9982 28.4173H58.3035V24.2617C58.3035 20.2642 57.2195 17.2017 55.0509 15.0776Z" fill="#0F0B0B"/>
</g>
<defs>
<clipPath id="clip0_972_705">
<rect width="198" height="43" fill="white"/>
</clipPath>
</defs>
</svg>
