<svg width="198" height="26" viewBox="0 0 198 26" fill="none" xmlns="http://www.w3.org/2000/svg">
<g clip-path="url(#clip0_972_700)">
<path d="M85.4781 16.8041H98.5615L91.6435 5.63539L78.9464 25.8289H73.1678L88.6116 1.57219C89.2831 0.592112 90.4022 0 91.6435 0C92.8439 0 93.963 0.571704 94.6141 1.53135L110.119 25.8289H104.34L101.614 21.3165H88.3674L85.4781 16.8041ZM145.503 21.3165V0.245017H140.6V23.3787C140.6 24.0117 140.844 24.6242 141.312 25.0938C141.78 25.5635 142.411 25.8289 143.102 25.8289H165.464L168.354 21.3165H145.503ZM64.3777 17.5392C69.1391 17.5392 73.0051 13.6801 73.0051 8.90229C73.0051 4.12446 69.1391 0.245017 64.3777 0.245017H42.9252V25.8289H47.827V4.75742H64.0521C66.3311 4.75742 68.1624 6.61546 68.1624 8.90229C68.1624 11.1891 66.3311 13.0472 64.0521 13.0472L50.228 13.0267L64.866 25.8289H71.9877L62.1395 17.5392H64.3777ZM12.7499 25.8289C5.7116 25.8289 0 20.1118 0 13.0472C0 5.9825 5.7116 0.245017 12.7499 0.245017H27.5689C34.6092 0.245017 40.3167 5.9825 40.3167 13.0472C40.3167 20.1118 34.6092 25.8289 27.5689 25.8289H12.7499ZM27.2393 21.3165C31.7992 21.3165 35.4923 17.6208 35.4923 13.0472C35.4923 8.47351 31.7992 4.75742 27.2393 4.75742H13.0774C8.51956 4.75742 4.82437 8.47351 4.82437 13.0472C4.82437 17.6208 8.51956 21.3165 13.0774 21.3165H27.2393ZM120.354 25.8289C113.313 25.8289 107.596 20.1118 107.596 13.0472C107.596 5.9825 113.313 0.245017 120.354 0.245017H137.954L135.085 4.75742H120.679C116.121 4.75742 112.418 8.47351 112.418 13.0472C112.418 17.6208 116.121 21.3165 120.679 21.3165H138.361L135.472 25.8289H120.354ZM180.318 21.3165C176.554 21.3165 173.359 18.7846 172.382 15.2932H193.34L196.23 10.7808H172.382C173.359 7.30968 176.554 4.75742 180.318 4.75742H194.704L197.613 0.245017H179.992C172.952 0.245017 167.235 5.9825 167.235 13.0472C167.235 20.1118 172.952 25.8289 179.992 25.8289H195.111L198 21.3165H180.318Z" fill="#EA1B22"/>
</g>
<defs>
<clipPath id="clip0_972_700">
<rect width="198" height="26" fill="white"/>
</clipPath>
</defs>
</svg>
