<svg width="122" height="61" viewBox="0 0 122 61" fill="none" xmlns="http://www.w3.org/2000/svg">
<path d="M0 61H61.6585L122 0.647827H0V61" fill="url(#paint0_linear_972_697)"/>
<path d="M72.401 12.7182H60.352L60.3923 41.0569L49.9004 12.7075H39.497L30.5408 36.383C29.5885 30.3585 23.3602 28.2797 18.4596 26.7226C15.2234 25.6832 11.7887 24.1543 11.8235 22.4644C11.8503 21.0777 13.6609 19.7915 17.2592 19.9833C19.6733 20.1134 21.8058 20.3078 26.0479 22.3571L30.2189 15.0881C26.351 13.1192 21.0024 11.876 16.6168 11.8719H16.59C11.4762 11.8719 7.21798 13.5283 4.57857 16.2575C2.7385 18.162 1.74604 20.5841 1.70581 23.2624C1.63875 26.9479 2.9893 29.5605 5.82719 31.6487C8.22519 33.4056 11.2924 34.5456 13.9949 35.3825C17.3276 36.4152 20.0502 37.3138 20.0167 39.2263C19.9898 39.9237 19.727 40.5755 19.2254 41.1012C18.3939 41.9595 17.1198 42.2814 15.3561 42.3163C11.9536 42.3887 9.43223 41.8536 5.41412 39.4784L1.70312 46.8414C5.71722 49.124 9.97808 50.2694 14.8197 50.2694L15.9087 50.2613C20.1226 50.1849 23.5426 49.175 26.2598 46.9889C26.4153 46.8642 26.5548 46.7381 26.6997 46.6107L26.2437 48.9604L36.4097 48.9282L38.2337 44.2583C40.1515 44.9128 42.3322 45.2749 44.6471 45.2749C46.9029 45.2749 49.0246 44.9316 50.9063 44.3146L52.1777 48.9282L70.4175 48.9456L70.4617 38.2995H74.3431C83.7245 38.2995 89.2702 33.525 89.2702 25.5183C89.2671 16.6009 83.876 12.7169 72.4011 12.7169L72.401 12.7182ZM44.647 36.9423C43.2455 36.9423 41.9312 36.6982 40.8006 36.269L44.6041 24.2589H44.6779L48.4197 36.3025C47.2932 36.7049 46.0097 36.9423 44.6457 36.9423H44.647ZM73.1065 30.042H70.459V20.3628H73.1078C76.6351 20.3628 79.4515 21.5377 79.4515 25.14C79.4484 28.8685 76.6351 30.042 73.1078 30.042" fill="white"/>
<defs>
<linearGradient id="paint0_linear_972_697" x1="6100" y1="0.647827" x2="6100" y2="6036" gradientUnits="userSpaceOnUse">
<stop stop-color="#00AEEF"/>
<stop offset="0.212" stop-color="#0097DC"/>
<stop offset="0.519" stop-color="#007CC5"/>
<stop offset="0.792" stop-color="#006CB8"/>
<stop offset="1" stop-color="#0066B3"/>
</linearGradient>
</defs>
</svg>
