<svg width="32" height="66" viewBox="0 0 32 66" fill="none" xmlns="http://www.w3.org/2000/svg">
<circle cx="16" cy="16" r="11.5" fill="black" stroke="black"/>
<circle cx="16" cy="16" r="15.5" stroke="black"/>
<path d="M19.2314 20.376C19.418 20.376 19.5647 20.432 19.6714 20.544C19.778 20.6507 19.8314 20.7893 19.8314 20.96V22H12.0394V21.416C12.0394 21.2987 12.0634 21.176 12.1114 21.048C12.1594 20.92 12.2367 20.8027 12.3434 20.696L15.9274 17.104C16.2314 16.8 16.5007 16.5093 16.7354 16.232C16.9754 15.9547 17.178 15.6773 17.3434 15.4C17.514 15.1227 17.642 14.8427 17.7274 14.56C17.818 14.272 17.8634 13.9707 17.8634 13.656C17.8634 13.352 17.8154 13.0853 17.7194 12.856C17.6287 12.6213 17.5007 12.4293 17.3354 12.28C17.1754 12.1253 16.9807 12.0107 16.7514 11.936C16.5274 11.856 16.2794 11.816 16.0074 11.816C15.746 11.816 15.5034 11.8533 15.2794 11.928C15.0607 12.0027 14.8634 12.1067 14.6874 12.24C14.5167 12.3733 14.3727 12.5333 14.2554 12.72C14.1434 12.9013 14.0607 13.1013 14.0074 13.32C13.9274 13.5387 13.8234 13.6853 13.6954 13.76C13.5727 13.8347 13.3914 13.8507 13.1514 13.808L12.2474 13.648C12.3274 13.104 12.4767 12.6267 12.6954 12.216C12.9194 11.8053 13.1994 11.464 13.5354 11.192C13.8714 10.9147 14.2554 10.7067 14.6874 10.568C15.1247 10.424 15.5967 10.352 16.1034 10.352C16.6154 10.352 17.0847 10.4293 17.5114 10.584C17.9434 10.7333 18.314 10.9493 18.6234 11.232C18.938 11.5093 19.1834 11.848 19.3594 12.248C19.5354 12.648 19.6234 13.0987 19.6234 13.6C19.6234 14.0267 19.5594 14.4213 19.4314 14.784C19.3087 15.1467 19.1407 15.4933 18.9274 15.824C18.714 16.1547 18.4634 16.4773 18.1754 16.792C17.8927 17.1013 17.594 17.416 17.2794 17.736L14.4954 20.584C14.7247 20.52 14.954 20.4693 15.1834 20.432C15.418 20.3947 15.6394 20.376 15.8474 20.376H19.2314Z" fill="#FCFCFC"/>
<line x1="16.75" y1="34.75" x2="16.75" y2="65.25" stroke="black" stroke-width="1.5" stroke-linecap="round"/>
</svg>
