<svg width="32" height="66" viewBox="0 0 32 66" fill="none" xmlns="http://www.w3.org/2000/svg">
<circle cx="16" cy="16" r="11.5" fill="black" stroke="black"/>
<circle cx="16" cy="16" r="15.5" stroke="black"/>
<path d="M12.3034 13.648C12.3834 13.104 12.5327 12.6267 12.7514 12.216C12.9754 11.8053 13.2554 11.464 13.5914 11.192C13.9274 10.9147 14.3114 10.7067 14.7434 10.568C15.1807 10.424 15.6527 10.352 16.1594 10.352C16.6714 10.352 17.1354 10.4267 17.5514 10.576C17.9727 10.72 18.3327 10.9227 18.6314 11.184C18.9354 11.4453 19.1674 11.7573 19.3274 12.12C19.4927 12.4827 19.5754 12.88 19.5754 13.312C19.5754 13.68 19.53 14.0053 19.4394 14.288C19.354 14.5653 19.2287 14.8107 19.0634 15.024C18.9034 15.2373 18.706 15.416 18.4714 15.56C18.2367 15.704 17.9727 15.824 17.6794 15.92C18.394 16.128 18.93 16.4613 19.2874 16.92C19.6447 17.3733 19.8234 17.944 19.8234 18.632C19.8234 19.1867 19.7194 19.68 19.5114 20.112C19.3034 20.544 19.0207 20.9093 18.6634 21.208C18.3114 21.5067 17.898 21.736 17.4234 21.896C16.954 22.0507 16.4554 22.128 15.9274 22.128C15.3354 22.128 14.8234 22.0587 14.3914 21.92C13.9594 21.776 13.586 21.5733 13.2714 21.312C12.962 21.0453 12.7034 20.7253 12.4954 20.352C12.2874 19.9787 12.1114 19.56 11.9674 19.096L12.7114 18.784C12.9087 18.6987 13.0954 18.6747 13.2714 18.712C13.4527 18.7493 13.5834 18.848 13.6634 19.008C13.7487 19.1787 13.8447 19.3627 13.9514 19.56C14.058 19.752 14.194 19.9307 14.3594 20.096C14.53 20.256 14.738 20.392 14.9834 20.504C15.234 20.6107 15.5407 20.664 15.9034 20.664C16.2714 20.664 16.5914 20.6053 16.8634 20.488C17.1407 20.3653 17.37 20.2107 17.5514 20.024C17.738 19.832 17.8767 19.6187 17.9674 19.384C18.058 19.1493 18.1034 18.9173 18.1034 18.688C18.1034 18.4 18.0687 18.136 17.9994 17.896C17.93 17.6507 17.794 17.4427 17.5914 17.272C17.394 17.1013 17.1114 16.968 16.7434 16.872C16.3807 16.7707 15.9034 16.72 15.3114 16.72V15.48C15.7967 15.4747 16.2047 15.4267 16.5354 15.336C16.8714 15.24 17.138 15.112 17.3354 14.952C17.538 14.7867 17.682 14.5893 17.7674 14.36C17.858 14.1307 17.9034 13.88 17.9034 13.608C17.9034 13.3147 17.858 13.056 17.7674 12.832C17.6767 12.608 17.5487 12.4213 17.3834 12.272C17.2234 12.1173 17.0314 12.0027 16.8074 11.928C16.5834 11.8533 16.3354 11.816 16.0634 11.816C15.802 11.816 15.5594 11.8533 15.3354 11.928C15.1167 12.0027 14.9194 12.1067 14.7434 12.24C14.5727 12.3733 14.4287 12.5333 14.3114 12.72C14.194 12.9013 14.1087 13.1013 14.0554 13.32C13.9807 13.5387 13.8794 13.6853 13.7514 13.76C13.6287 13.8347 13.4474 13.8507 13.2074 13.808L12.3034 13.648Z" fill="#FCFCFC"/>
<line x1="16.75" y1="34.75" x2="16.75" y2="65.25" stroke="black" stroke-width="1.5" stroke-linecap="round"/>
</svg>
