<svg width="44" height="44" viewBox="0 0 44 44" fill="none" xmlns="http://www.w3.org/2000/svg">
<circle cx="22" cy="22" r="22" fill="#D61E46"/>
<path d="M17.7435 11.7439L18.9551 11.3569C20.0891 10.9946 21.3019 11.5807 21.7879 12.726L22.7554 15.0075C23.1772 16.0009 22.9432 17.1697 22.1771 17.8965L20.0475 19.9192C20.1791 21.1297 20.5852 22.3211 21.267 23.4934C21.9148 24.6276 22.7836 25.6203 23.8219 26.4127L26.3824 25.5577C27.3521 25.2349 28.4085 25.6072 29.0036 26.4814L30.3896 28.5176C31.0826 29.5346 30.9577 30.9364 30.0994 31.7981L29.1791 32.7217C28.2634 33.6409 26.9561 33.975 25.7456 33.597C22.8892 32.706 20.2635 30.0611 17.8672 25.6624C15.4676 21.2569 14.6216 17.5174 15.327 14.4484C15.624 13.1569 16.5442 12.1275 17.7457 11.7439H17.7435Z" fill="white"/>
</svg>
