<svg width="99" height="100" viewBox="0 0 99 100" fill="none" xmlns="http://www.w3.org/2000/svg">
<g clip-path="url(#clip0_908_1664)">
<path d="M49.4321 9.62889V1.18958" stroke="#344154" stroke-width="3.56717" stroke-linecap="round" stroke-linejoin="round"/>
<path d="M37.7656 11.6663L34.6337 3.13611" stroke="#344154" stroke-width="3.56717" stroke-linecap="round" stroke-linejoin="round"/>
<path d="M26.841 16.8743L21.1058 10.1047" stroke="#344154" stroke-width="3.56717" stroke-linecap="round" stroke-linejoin="round"/>
<path d="M19.8656 24.0765L11.7499 19.4351" stroke="#344154" stroke-width="3.56717" stroke-linecap="round" stroke-linejoin="round"/>
<path d="M80.3052 25.863L87.2503 21.8877" stroke="#344154" stroke-width="3.56717" stroke-linecap="round" stroke-linejoin="round"/>
<path d="M72.731 17.6183L78.2914 11.0606" stroke="#344154" stroke-width="3.56717" stroke-linecap="round" stroke-linejoin="round"/>
<path d="M61.0992 12.3237L64.2179 3.84546" stroke="#344154" stroke-width="3.56717" stroke-linecap="round" stroke-linejoin="round"/>
<path d="M59.959 69.3616L65.7029 74.0333C67.4588 75.4607 68.4722 77.5933 68.4722 79.8383V98.8105" stroke="#344154" stroke-width="3.56717" stroke-linecap="round" stroke-linejoin="round"/>
<path d="M39.0411 69.3616L33.2972 74.0333C31.5413 75.4607 30.5279 77.5933 30.5279 79.8383V98.8105" stroke="#344154" stroke-width="3.56717" stroke-linecap="round" stroke-linejoin="round"/>
<path d="M61.3352 81.6593L61.3658 85.6648V97.3224" stroke="#344154" stroke-width="3.56717" stroke-linecap="round" stroke-linejoin="round"/>
<path d="M37.665 81.6593L37.6344 85.6648V97.3224" stroke="#344154" stroke-width="3.56717" stroke-linecap="round" stroke-linejoin="round"/>
<path d="M61.2758 57.4505C62.3219 51.0114 57.8989 44.9516 51.3968 43.9156C44.8947 42.8797 38.7756 47.2598 37.7295 53.6989C36.6834 60.138 41.1063 66.1977 47.6084 67.2337C54.1106 68.2697 60.2296 63.8896 61.2758 57.4505Z" stroke="#344154" stroke-width="3.56717" stroke-linecap="round" stroke-linejoin="round"/>
<path d="M49.5022 48.5206C48.4626 48.5206 47.4755 48.7499 46.58 49.1478C49.0523 50.2552 50.782 52.7165 50.782 55.5714C50.782 58.4263 49.0523 60.8876 46.58 61.995C47.4711 62.3929 48.4583 62.6222 49.5022 62.6222C53.429 62.6222 56.622 59.4602 56.622 55.5714C56.622 51.6827 53.429 48.5206 49.5022 48.5206Z" fill="#35B4CF"/>
<path d="M9.71413 60.0398L3.97025 64.7115C2.21433 66.1389 1.20096 68.2715 1.20096 70.5165V89.4887" stroke="#344154" stroke-width="3.56717" stroke-linecap="round" stroke-linejoin="round"/>
<path d="M8.33839 72.3419L8.30782 76.3475V88.0007" stroke="#344154" stroke-width="3.56717" stroke-linecap="round" stroke-linejoin="round"/>
<path d="M20.1759 58.063C26.7616 58.063 32.1004 52.7759 32.1004 46.254C32.1004 39.7321 26.7616 34.445 20.1759 34.445C13.5901 34.445 8.25131 39.7321 8.25131 46.254C8.25131 52.7759 13.5901 58.063 20.1759 58.063Z" stroke="#344154" stroke-width="3.56717" stroke-linecap="round" stroke-linejoin="round"/>
<path d="M89.2854 60.0397L95.0293 64.7114C96.7852 66.1389 97.7986 68.2714 97.7986 70.5164V89.4887" stroke="#344154" stroke-width="3.56717" stroke-linecap="round" stroke-linejoin="round"/>
<path d="M90.6616 72.3419L90.6922 76.3474V88.0007" stroke="#344154" stroke-width="3.56717" stroke-linecap="round" stroke-linejoin="round"/>
<path d="M78.8245 58.063C85.4102 58.063 90.749 52.7759 90.749 46.254C90.749 39.7321 85.4102 34.445 78.8245 34.445C72.2387 34.445 66.8999 39.7321 66.8999 46.254C66.8999 52.7759 72.2387 58.063 78.8245 58.063Z" stroke="#344154" stroke-width="3.56717" stroke-linecap="round" stroke-linejoin="round"/>
</g>
<defs>
<clipPath id="clip0_908_1664">
<rect width="99" height="100" fill="white"/>
</clipPath>
</defs>
</svg>
