<svg width="127" height="101" viewBox="0 0 127 101" fill="none" xmlns="http://www.w3.org/2000/svg">
<g clip-path="url(#clip0_908_1662)">
<path d="M44.5336 12.7306C44.5336 12.7306 41.1398 6.4445 48.3706 5.45258C48.3706 5.45258 49.8751 9.42027 55.8288 10.0718C59.2985 10.4533 61.2694 14.3975 59.4792 17.4143C59.4559 17.4554 59.4268 17.4965 59.4034 17.5376" stroke="#344154" stroke-width="3.07636" stroke-miterlimit="10" stroke-linecap="round"/>
<path d="M48.3707 5.45266C48.3707 5.45266 48.3591 5.41158 48.3416 5.33528C47.8634 2.95231 50.126 0.915646 52.441 1.60236C54.3303 2.16582 57.2285 2.60015 60.9372 1.87235C62.7624 1.51432 64.6576 1.87822 66.2087 2.9171C68.6404 4.54878 72.2616 7.38368 75.4222 11.4922" stroke="#344154" stroke-width="3.07636" stroke-miterlimit="10" stroke-linecap="round"/>
<path d="M60.1558 14.3095L75.7137 11.8679C77.3115 11.6155 78.9384 11.6742 80.5129 12.0322L83.2827 12.6661C86.6357 13.4291 88.2218 17.3968 86.2275 20.2141C86.1984 20.2552 86.175 20.2904 86.1459 20.3315C86.1459 20.3315 90.3503 22.1158 88.9041 27.8032C88.9041 27.8032 92.5837 30.1861 90.3503 34.7466C90.3503 34.7466 94.1581 36.93 92.9802 41.291C86.315 46.4912 79.1192 50.9754 71.521 54.6614L68.2379 56.2579L55.3916 57.508C51.9219 57.8485 48.5281 58.7641 45.3617 60.2197L24.7072 73.7544" stroke="#344154" stroke-width="3.07636" stroke-miterlimit="10" stroke-linecap="round"/>
<path d="M40.2243 27.4569C40.2243 27.4569 37.1162 28.3667 37.3961 31.2192C37.5536 32.8039 38.7607 34.0834 40.2885 34.5119L44.9302 35.809C47.012 36.3901 49.292 35.1927 49.7468 33.068C49.9334 32.1994 49.8226 31.2016 49.1229 30.1392" stroke="#344154" stroke-width="3.07636" stroke-miterlimit="10" stroke-linecap="round"/>
<path d="M39.8629 34.3593L24.6957 45.6578" stroke="#344154" stroke-width="3.07636" stroke-miterlimit="10" stroke-linecap="round"/>
<path d="M68.2321 56.2578C68.2321 56.2578 90.3502 68.7361 102.304 74.0244" stroke="#344154" stroke-width="3.07636" stroke-miterlimit="10" stroke-linecap="round"/>
<path d="M92.9743 41.291L102.304 46.2858" stroke="#344154" stroke-width="3.07636" stroke-miterlimit="10" stroke-linecap="round"/>
<path d="M86.146 20.3315L76.0928 21.253" stroke="#344154" stroke-width="3.07636" stroke-miterlimit="10" stroke-linecap="round"/>
<path d="M88.9041 27.8032L78.0462 30.5324" stroke="#344154" stroke-width="3.07636" stroke-miterlimit="10" stroke-linecap="round"/>
<path d="M90.3502 34.7466L81.1192 39.7063" stroke="#344154" stroke-width="3.07636" stroke-miterlimit="10" stroke-linecap="round"/>
<path d="M14.1817 47.5712L20.9869 44.0144C22.6779 43.1339 24.6897 44.3665 24.6897 46.2799V76.5248C24.6897 77.4639 24.1766 78.3267 23.3544 78.7727L14.0651 83.8028" stroke="#344154" stroke-width="3.07636" stroke-miterlimit="10" stroke-linecap="round"/>
<path d="M1.45776 47.935L9.32419 43.2043C11.4176 41.9483 14.0709 43.4626 14.0709 45.916V90.0242C14.0709 91.1277 13.4994 92.149 12.5664 92.7183L1.45776 99.5326" stroke="#344154" stroke-width="3.07636" stroke-miterlimit="10" stroke-linecap="round"/>
<path d="M112.819 47.5712L106.013 44.0144C104.322 43.1339 102.31 44.3665 102.31 46.2799V76.5189C102.31 77.458 102.824 78.3267 103.652 78.7727L112.824 83.7089" stroke="#344154" stroke-width="3.07636" stroke-miterlimit="10" stroke-linecap="round"/>
<path d="M125.542 47.935L117.676 43.2043C115.583 41.9483 112.929 43.4626 112.929 45.916V90.0242C112.929 91.1277 113.501 92.149 114.434 92.7183L125.542 99.5326" stroke="#344154" stroke-width="3.07636" stroke-miterlimit="10" stroke-linecap="round"/>
<path d="M51.7587 23.6418L55.8522 24.8098C58.004 25.4261 60.249 24.1876 60.8905 22.0277C61.5261 19.8971 60.3657 17.6433 58.2722 16.939L46.5396 12.9713C45.0643 12.4724 43.3966 12.6661 42.1895 13.6463C41.4314 14.2625 40.7608 15.1958 40.5626 16.5986C40.2885 18.5296 41.4956 20.3667 43.3441 20.9536L55.5315 24.8391L54.6918 27.3923C53.9279 29.7225 51.4088 30.955 49.1171 30.1333L48.429 29.8868L39.822 27.3278C37.9735 26.6234 37.1163 23.8531 37.9151 22.0277C38.3758 20.9771 39.4196 20.0615 41.5889 19.8326" stroke="#344154" stroke-width="3.07636" stroke-miterlimit="10" stroke-linecap="round"/>
<path d="M42.1721 55.3069L42.5336 55.0663L42.9302 54.8843C43.7699 54.497 44.6271 54.1448 45.4901 53.8279C43.4258 52.472 41.2216 51.3216 38.9182 50.4236C36.2242 49.373 33.396 48.6804 30.527 48.3165V62.9312L42.1721 55.3011V55.3069Z" fill="#FFC524"/>
</g>
<defs>
<clipPath id="clip0_908_1662">
<rect width="127" height="101" fill="white"/>
</clipPath>
</defs>
</svg>
