<svg width="91" height="98" viewBox="0 0 91 98" fill="none" xmlns="http://www.w3.org/2000/svg">
<g clip-path="url(#clip0_908_1660)">
<path d="M66.5008 75.586L75.1993 67.4415C79.0844 63.7391 85.267 63.8471 89.0093 67.6908C90.156 68.8668 90.1224 70.7409 88.9337 71.8711L71.415 88.3596C66.9209 92.5441 59.8856 94.8295 53.7198 95.0788C47.5499 95.3281 41.4093 94.335 35.2435 93.9901C25.915 93.4624 10.8029 94.468 1.77686 96.8573" stroke="#344154" stroke-width="2.99548" stroke-linecap="round" stroke-linejoin="round"/>
<path d="M28.6617 78.4075L39.7879 80.7636C43.295 81.5074 46.8693 81.8814 50.452 81.8814H56.4708C59.5495 81.8814 62.0486 79.409 62.0486 76.3631C62.0486 73.3172 59.5495 70.8448 56.4708 70.8448H51.1786C46.2981 70.8448 41.4721 69.8599 36.9906 67.9485C33.8447 66.6104 30.724 65.2184 27.3639 64.3873C18.1824 62.1143 7.88791 64.9026 1.15511 71.4805" stroke="#344154" stroke-width="2.99548" stroke-linecap="round" stroke-linejoin="round"/>
<path d="M57.9533 30.9865C57.9533 30.9865 68.0841 36.4218 72.0238 39.5507C72.9604 40.2945 73.75 41.2004 74.3926 42.2102C75.5813 44.0842 76.1315 46.2866 76.1315 48.4972V58.1667" stroke="#344154" stroke-width="2.99548" stroke-miterlimit="10" stroke-linecap="round"/>
<path d="M37.5281 30.9865C37.5281 30.9865 27.3974 36.4218 23.4576 39.5507C22.521 40.2945 21.7314 41.2004 21.0888 42.2102C19.9001 44.0842 19.3499 46.2866 19.3499 48.4972V58.1667" stroke="#344154" stroke-width="2.99548" stroke-miterlimit="10" stroke-linecap="round"/>
<path d="M47.7386 36.2638C55.6324 36.2638 62.0316 28.4017 62.0316 18.7033C62.0316 9.00486 55.6324 1.14273 47.7386 1.14273C39.8448 1.14273 33.4455 9.00486 33.4455 18.7033C33.4455 28.4017 39.8448 36.2638 47.7386 36.2638Z" stroke="#344154" stroke-width="2.99548" stroke-miterlimit="10" stroke-linecap="round"/>
<path d="M47.7386 5.71365C46.6088 5.71365 45.5251 6.00453 44.5045 6.50733C48.2132 8.33984 50.9433 13.1808 50.9433 18.7033C50.9433 24.2258 48.2132 29.0668 44.5045 30.8993C45.5209 31.4021 46.6088 31.693 47.7386 31.693C52.9804 31.693 57.4115 25.7425 57.4115 18.7033C57.4115 11.6641 52.9804 5.71365 47.7386 5.71365Z" fill="#35B4CF"/>
</g>
<defs>
<clipPath id="clip0_908_1660">
<rect width="91" height="98" fill="white"/>
</clipPath>
</defs>
</svg>
