<svg width="95" height="99" viewBox="0 0 95 99" fill="none" xmlns="http://www.w3.org/2000/svg">
<g clip-path="url(#clip0_908_1663)">
<path d="M67.8208 15.9168H77.3052V4.78624H69.8593C67.8035 4.78624 66.1364 3.12483 66.1364 1.07605H54.9675V12.2066H66.1364V7.54951" stroke="#344154" stroke-width="3.27332" stroke-linecap="round" stroke-linejoin="round"/>
<path d="M54.9718 12.2066V26.2554" stroke="#344154" stroke-width="3.27332" stroke-linecap="round" stroke-linejoin="round"/>
<path d="M24.445 48.3271L29.0015 52.0588C30.3923 53.1994 31.1999 54.8996 31.1999 56.6987V66.4649C31.1999 69.4433 28.777 71.858 25.7882 71.858" stroke="#344154" stroke-width="3.27332" stroke-miterlimit="10" stroke-linecap="round"/>
<path d="M7.83874 48.3271L3.28223 52.0588C1.88721 53.1994 1.08388 54.8996 1.08388 56.6987V66.4649C1.08388 69.4433 3.50682 71.858 6.49554 71.858" stroke="#344154" stroke-width="3.27332" stroke-miterlimit="10" stroke-linecap="round"/>
<path d="M25.5378 58.1535L25.5594 61.3515V93.2281C25.5594 95.8192 23.4518 97.924 20.8474 97.924H19.366" stroke="#344154" stroke-width="3.27332" stroke-miterlimit="10" stroke-linecap="round"/>
<path d="M6.74614 58.1535L6.72023 61.3515V93.2281C6.72023 95.8192 8.82789 97.924 11.4322 97.924C14.0322 97.924 16.1442 95.8236 16.1442 93.2281V74.6299" stroke="#344154" stroke-width="3.27332" stroke-miterlimit="10" stroke-linecap="round"/>
<path d="M16.1399 46.7475C21.3685 46.7475 25.6071 42.5234 25.6071 37.3128C25.6071 32.1021 21.3685 27.8781 16.1399 27.8781C10.9114 27.8781 6.67276 32.1021 6.67276 37.3128C6.67276 42.5234 10.9114 46.7475 16.1399 46.7475Z" stroke="#344154" stroke-width="3.27332" stroke-miterlimit="10" stroke-linecap="round"/>
<path d="M16.1396 42.4433C13.3021 42.4433 10.9914 40.1406 10.9914 37.3128C10.9914 34.4849 13.3021 32.1822 16.1396 32.1822C18.9772 32.1822 21.2879 34.4849 21.2879 37.3128C21.2879 40.1406 18.9772 42.4433 16.1396 42.4433Z" fill="#FFC524"/>
<path d="M93.9202 60.0904L63.6572 29.9311C58.8934 25.1836 51.1667 25.1836 46.3986 29.9311L30.7812 45.495" stroke="#344154" stroke-width="3.27332" stroke-linecap="round" stroke-linejoin="round"/>
<path d="M45.0125 93.9254V43.231" stroke="#344154" stroke-width="3.27332" stroke-miterlimit="10" stroke-linecap="round"/>
<path d="M64.2144 43.231V93.9254" stroke="#344154" stroke-width="3.27332" stroke-miterlimit="10" stroke-linecap="round"/>
<path d="M45.1332 52.7949H64.0891" stroke="#344154" stroke-width="3.27332" stroke-miterlimit="10" stroke-linecap="round"/>
<path d="M45.1331 63.3185H64.089" stroke="#344154" stroke-width="3.27332" stroke-miterlimit="10" stroke-linecap="round"/>
<path d="M45.1331 73.838H64.089" stroke="#344154" stroke-width="3.27332" stroke-miterlimit="10" stroke-linecap="round"/>
<path d="M45.1331 84.3573H64.089" stroke="#344154" stroke-width="3.27332" stroke-miterlimit="10" stroke-linecap="round"/>
</g>
<defs>
<clipPath id="clip0_908_1663">
<rect width="95" height="99" fill="white"/>
</clipPath>
</defs>
</svg>
