<svg width="97" height="99" viewBox="0 0 97 99" fill="none" xmlns="http://www.w3.org/2000/svg">
<g clip-path="url(#clip0_910_2803)">
<path d="M26.6244 84.2081L33.2782 89.9172V97.7951" stroke="#344154" stroke-width="3.42983" stroke-linecap="round" stroke-linejoin="round"/>
<path d="M17.7452 83.9189C22.8417 83.9189 26.9732 79.0304 26.9732 73.0002C26.9732 66.9699 22.8417 62.0815 17.7452 62.0815C12.6487 62.0815 8.51721 66.9699 8.51721 73.0002C8.51721 79.0304 12.6487 83.9189 17.7452 83.9189Z" stroke="#344154" stroke-width="3.42983" stroke-linecap="round" stroke-linejoin="round"/>
<path d="M57.8757 84.2081L64.534 89.9172V97.7951" stroke="#344154" stroke-width="3.42983" stroke-linecap="round" stroke-linejoin="round"/>
<path d="M39.9497 84.0328L33.2782 89.9171" stroke="#344154" stroke-width="3.42983" stroke-linecap="round" stroke-linejoin="round"/>
<path d="M49.0011 83.9189C54.0976 83.9189 58.2291 79.0304 58.2291 73.0002C58.2291 66.9699 54.0976 62.0815 49.0011 62.0815C43.9046 62.0815 39.7731 66.9699 39.7731 73.0002C39.7731 79.0304 43.9046 83.9189 49.0011 83.9189Z" stroke="#344154" stroke-width="3.42983" stroke-linecap="round" stroke-linejoin="round"/>
<path d="M89.1275 84.2081L95.7858 89.9172V97.7951" stroke="#344154" stroke-width="3.42983" stroke-linecap="round" stroke-linejoin="round"/>
<path d="M7.87256 84.2081L1.21426 89.9172V97.7951" stroke="#344154" stroke-width="3.42983" stroke-linecap="round" stroke-linejoin="round"/>
<path d="M71.2014 84.0328L64.5343 89.9171" stroke="#344154" stroke-width="3.42983" stroke-linecap="round" stroke-linejoin="round"/>
<path d="M80.2527 83.9189C85.3492 83.9189 89.4807 79.0304 89.4807 73.0002C89.4807 66.9699 85.3492 62.0815 80.2527 62.0815C75.1562 62.0815 71.0247 66.9699 71.0247 73.0002C71.0247 79.0304 75.1562 83.9189 80.2527 83.9189Z" stroke="#344154" stroke-width="3.42983" stroke-linecap="round" stroke-linejoin="round"/>
<path d="M80.2527 79.0992C77.8817 79.0992 75.8815 76.3038 75.8815 73.0002C75.8815 69.6965 77.8817 66.9011 80.2527 66.9011C82.6237 66.9011 84.6239 69.6965 84.6239 73.0002C84.6239 76.3038 82.6237 79.0992 80.2527 79.0992Z" fill="#FFC524"/>
<path d="M49.0012 79.0992C46.6302 79.0992 44.6301 76.3038 44.6301 73.0002C44.6301 69.6965 46.6302 66.9011 49.0012 66.9011C51.3722 66.9011 53.3724 69.6965 53.3724 73.0002C53.3724 76.3038 51.3722 79.0992 49.0012 79.0992Z" fill="#FFC524"/>
<path d="M17.7452 79.0992C15.3742 79.0992 13.3741 76.3038 13.3741 73.0002C13.3741 69.6965 15.3742 66.9011 17.7452 66.9011C20.1162 66.9011 22.1164 69.6965 22.1164 73.0002C22.1164 76.3038 20.1162 79.0992 17.7452 79.0992Z" fill="#FFC524"/>
<path d="M8.97638 58.5982V7.04985C8.97638 3.82068 11.6123 1.20493 14.8664 1.20493H82.1381C85.3922 1.20493 88.0281 3.82068 88.0281 7.04985V58.5982" stroke="#344154" stroke-width="3.42983" stroke-linecap="round" stroke-linejoin="round"/>
<path d="M55.5758 1.2049V8.68412C55.5758 10.3491 54.2159 11.703 52.5336 11.703H43.4116C41.7338 11.703 40.3694 10.3535 40.3694 8.68412V1.2049" stroke="#344154" stroke-width="3.42983" stroke-linecap="round" stroke-linejoin="round"/>
<path d="M48.498 6.45392C48.498 6.7431 48.2639 6.97532 47.9725 6.97532C47.6811 6.97532 47.4471 6.7431 47.4471 6.45392C47.4471 6.16474 47.6811 5.93253 47.9725 5.93253C48.2639 5.93253 48.498 6.16474 48.498 6.45392Z" stroke="#344154" stroke-width="3.42983" stroke-linecap="round" stroke-linejoin="round"/>
<path d="M73.2457 21.0619C73.2457 25.3119 70.4111 28.7602 66.9098 28.7602C63.4084 28.7602 60.5738 25.3119 60.5738 21.0619C60.5738 16.8118 63.4084 13.3636 66.9098 13.3636C70.4111 13.3636 73.2457 16.8118 73.2457 21.0619Z" stroke="#344154" stroke-width="3.42983" stroke-linecap="round" stroke-linejoin="round"/>
<path d="M81.1006 38.8508L76.5484 34.6708L73.599 32.0507" stroke="#344154" stroke-width="3.42983" stroke-linecap="round" stroke-linejoin="round"/>
<path d="M74.4423 50.4705V41.8477L74.4247 39.4379L80.7033 44.9542" stroke="#344154" stroke-width="3.42983" stroke-linecap="round" stroke-linejoin="round"/>
<path d="M60.9712 32.0375L52.7499 25.4916C51.677 24.6372 50.0698 24.6679 49.1514 25.6888C48.1756 26.7754 48.3257 28.4403 49.4561 29.3385L57.0901 35.4157C58.4147 36.4716 59.1874 38.0665 59.1874 39.749V50.4705" stroke="#344154" stroke-width="3.42983" stroke-linecap="round" stroke-linejoin="round"/>
<path d="M17.8909 21.925V50.9656H50.211" stroke="#344154" stroke-width="3.42983" stroke-linecap="round" stroke-linejoin="round"/>
<path d="M23.7103 28.8697C25.0261 28.2519 26.6244 28.2651 27.927 28.9048C29.2295 29.5445 30.2141 30.7976 30.5143 32.2084C30.8985 34.0004 30.245 35.959 30.9338 37.659C31.5917 39.2845 33.3313 40.2397 35.0533 40.6472C36.7708 41.059 38.5679 41.059 40.2854 41.4753C42.003 41.8871 43.7426 42.8467 44.3961 44.4766" stroke="#344154" stroke-width="3.42983" stroke-linecap="round" stroke-linejoin="round"/>
</g>
<defs>
<clipPath id="clip0_910_2803">
<rect width="97" height="99" fill="white"/>
</clipPath>
</defs>
</svg>
