<svg width="103" height="100" viewBox="0 0 103 100" fill="none" xmlns="http://www.w3.org/2000/svg">
<path d="M30.5221 28.1402L36.4908 33.4794L46.1556 21.628" stroke="#344154" stroke-width="3.04494" stroke-linecap="round" stroke-linejoin="round"/>
<path d="M98.1508 86.65C100.203 86.6416 101.859 84.9718 101.855 82.9138L101.768 20.6679L94.3298 20.6971L94.4172 82.9221C94.4172 84.9843 96.0946 86.6541 98.1508 86.6458V86.65Z" stroke="#344154" stroke-width="3.04494" stroke-linecap="round" stroke-linejoin="round"/>
<path d="M94.3299 20.672V9.02104C94.3299 6.96301 95.9948 5.29321 98.0468 5.29321C100.099 5.29321 101.764 6.96301 101.764 9.02104V20.672" stroke="#344154" stroke-width="3.04494" stroke-linecap="round" stroke-linejoin="round"/>
<path d="M98.0966 86.6666V94.7067" stroke="#344154" stroke-width="3.04494" stroke-linecap="round" stroke-linejoin="round"/>
<path d="M75.5331 8.6203H83.3082V81.2148C83.3082 90.9538 75.4373 98.852 65.7226 98.852H7.51295V91.054" stroke="#344154" stroke-width="3.04494" stroke-linecap="round" stroke-linejoin="round"/>
<path d="M56.295 1.14795H1.14462V91.054H59.6581C62.3511 91.054 64.5363 88.8624 64.5363 86.1615V80.0208H70.659C73.352 80.0208 75.5372 77.8292 75.5372 75.1283V1.14795H56.2991" stroke="#344154" stroke-width="3.04494" stroke-linecap="round" stroke-linejoin="round"/>
<path d="M51.0921 14.7651H25.5897V40.3423H51.0921V14.7651Z" stroke="#344154" stroke-width="3.04494" stroke-linecap="round" stroke-linejoin="round"/>
<path d="M51.0921 49.3258H25.5897V74.9029H51.0921V49.3258Z" stroke="#344154" stroke-width="3.04494" stroke-linecap="round" stroke-linejoin="round"/>
<path d="M30.6387 54.3895L46.0391 69.8351" stroke="#344154" stroke-width="3.04494" stroke-linecap="round" stroke-linejoin="round"/>
<path d="M30.6387 69.8351L46.0391 54.3895" stroke="#344154" stroke-width="3.04494" stroke-linecap="round" stroke-linejoin="round"/>
</svg>
